<?xml version="1.0" encoding="UTF-8" standalone="no"?>
<!DOCTYPE svg PUBLIC "-//W3C//DTD SVG 1.1//EN" "http://www.w3.org/Graphics/SVG/1.1/DTD/svg11.dtd">
<svg width="100%" height="100%" viewBox="0 0 860 187" version="1.1" xmlns="http://www.w3.org/2000/svg" xmlns:xlink="http://www.w3.org/1999/xlink" xml:space="preserve" xmlns:serif="http://www.serif.com/" style="fill-rule:evenodd;clip-rule:evenodd;stroke-linejoin:round;stroke-miterlimit:2;">
    <g transform="matrix(1,0,0,1,-2591.3,656.357)">
        <g transform="matrix(0.615771,0,0,-0.615771,2591.3,-470.04)">
            <path d="M175.689,79.548L175.689,18.328C175.689,8.212 167.476,0 157.361,0L18.328,0C8.213,0 0,8.212 0,18.328L0,284.247C0,294.362 8.213,302.575 18.328,302.575L157.361,302.575C167.476,302.575 175.689,294.362 175.689,284.247L175.689,207.215L161.22,207.215L161.22,284.247C161.22,285.311 160.786,286.275 160.087,286.973C159.389,287.672 158.425,288.106 157.361,288.106L18.328,288.106C17.264,288.106 16.3,287.672 15.602,286.973C14.903,286.275 14.469,285.311 14.469,284.247L14.469,18.328C14.469,17.263 14.903,16.3 15.602,15.601C16.3,14.903 17.264,14.468 18.328,14.468L157.361,14.468C158.425,14.468 159.389,14.903 160.087,15.601C160.786,16.3 161.22,17.263 161.22,18.328L161.22,79.548L175.689,79.548ZM107.793,277.381L67.896,277.381L67.896,267.498L107.793,267.498L107.793,277.381Z" style="fill:rgb(245,245,245);"/>
        </g>
        <g transform="matrix(0.615771,0,0,-0.615771,2591.3,-464.224)">
            <path d="M97.351,175.591L83.095,175.591L73.256,159.708L39.445,159.769L39.419,145.3L83.741,145.221L88.434,156.735L102.852,113.917L116.816,114.882L127.834,173.167L141.835,98.495L156.039,98.409L168.938,162.902L178.222,124.482L191.997,123.559L202.501,150.571L244.403,150.571L244.403,165.039L192.604,165.039L186.869,150.294L175.303,198.156L161.177,197.875L149.174,137.861L134.973,213.602L120.754,213.612L107.737,144.747L97.351,175.591Z" style="fill:rgb(29,191,115);"/>
        </g>
        <g transform="matrix(-0.259793,0.558284,-0.558284,-0.259793,2770.72,-564.899)">
            <path d="M70.951,180.935L91.828,180.935L124.138,149.983L94.478,158.204L70.951,180.935Z" style="fill:rgb(29,191,115);"/>
        </g>
        <g transform="matrix(-0.104438,0.60685,-0.60685,-0.104438,2786.08,-627.943)">
            <path d="M82.5,169.722L123.383,169.722L195.004,143.324L155.251,142.75L82.5,169.722Z" style="fill:rgb(29,191,115);"/>
        </g>
        <g transform="matrix(-0.106457,0.606499,-0.606499,-0.106457,2813.07,-656.171)">
            <path d="M144.331,162.286L180.101,162.286L216.538,145.996L204.062,136.2L144.331,162.286Z" style="fill:rgb(29,191,115);"/>
        </g>
        <g transform="matrix(0.615771,0,0,-0.615771,2591.3,-469.854)">
            <path d="M75.097,150.144L81.356,160.664C82.872,163.294 85.113,165.103 89.086,164.949C93.682,163.935 93.602,160.641 91.482,156.351L83.156,137.775L75.097,150.144Z" style="fill:rgb(29,191,115);"/>
        </g>
        <g transform="matrix(0.615771,0,0,-0.615771,2591.3,-515.039)">
            <path d="M117.675,110.514L120.905,122.322C121.666,125.261 123.343,127.601 127.214,128.511C131.914,128.758 132.715,125.561 131.815,120.862L128.738,100.74L117.675,110.514Z" style="fill:rgb(29,191,115);"/>
        </g>
        <g transform="matrix(0.615771,0,0,-0.615771,2591.3,-495.71)">
            <path d="M157.733,126.209L160.962,138.017C161.723,140.956 163.401,143.296 167.271,144.206C171.971,144.453 172.772,141.257 171.872,136.557L168.795,116.435L157.733,126.209Z" style="fill:rgb(29,191,115);"/>
        </g>
        <g transform="matrix(2.05754,0,0,-2.05754,2756.83,-456.135)">
            <path d="M46.89,67.26L36.35,67.26C35.303,69.18 33.863,70.643 32.03,71.65C30.197,72.657 28.057,73.16 25.61,73.16C22.903,73.16 20.5,72.547 18.4,71.32C16.307,70.1 14.67,68.353 13.49,66.08C12.31,63.813 11.72,61.193 11.72,58.22C11.72,55.167 12.32,52.503 13.52,50.23C14.727,47.963 16.4,46.217 18.54,44.99C20.673,43.77 23.16,43.16 26,43.16C29.493,43.16 32.353,44.087 34.58,45.94C36.807,47.8 38.27,50.387 38.97,53.7L23.25,53.7L23.25,60.71L48.01,60.71L48.01,52.72C47.397,49.533 46.087,46.587 44.08,43.88C42.073,41.173 39.487,39 36.32,37.36C33.153,35.727 29.603,34.91 25.67,34.91C21.263,34.91 17.28,35.903 13.72,37.89C10.16,39.877 7.367,42.637 5.34,46.17C3.307,49.71 2.29,53.727 2.29,58.22C2.29,62.72 3.307,66.75 5.34,70.31C7.367,73.87 10.16,76.643 13.72,78.63C17.28,80.617 21.243,81.61 25.61,81.61C30.763,81.61 35.237,80.353 39.03,77.84C42.83,75.327 45.45,71.8 46.89,67.26ZM52.46,53.57C52.46,57.243 53.193,60.497 54.66,63.33C56.12,66.17 58.107,68.353 60.62,69.88C63.127,71.407 65.93,72.17 69.03,72.17C71.737,72.17 74.107,71.627 76.14,70.54C78.167,69.447 79.793,68.07 81.02,66.41L81.02,71.58L90.25,71.58L90.25,35.3L81.02,35.3L81.02,40.61C79.84,38.903 78.213,37.493 76.14,36.38C74.067,35.267 71.677,34.71 68.97,34.71C65.91,34.71 63.127,35.497 60.62,37.07C58.107,38.643 56.12,40.86 54.66,43.72C53.193,46.58 52.46,49.863 52.46,53.57ZM81.02,53.44C81.02,55.667 80.583,57.577 79.71,59.17C78.837,60.763 77.657,61.987 76.17,62.84C74.683,63.693 73.09,64.12 71.39,64.12C69.69,64.12 68.117,63.703 66.67,62.87C65.23,62.043 64.063,60.833 63.17,59.24C62.277,57.647 61.83,55.757 61.83,53.57C61.83,51.39 62.277,49.48 63.17,47.84C64.063,46.207 65.243,44.953 66.71,44.08C68.17,43.207 69.73,42.77 71.39,42.77C73.09,42.77 74.683,43.193 76.17,44.04C77.657,44.893 78.837,46.117 79.71,47.71C80.583,49.303 81.02,51.213 81.02,53.44ZM96.87,53.57C96.87,57.243 97.6,60.497 99.06,63.33C100.52,66.17 102.517,68.353 105.05,69.88C107.583,71.407 110.4,72.17 113.5,72.17C115.86,72.17 118.11,71.657 120.25,70.63C122.39,69.61 124.093,68.247 125.36,66.54L125.36,83.77L134.66,83.77L134.66,35.3L125.36,35.3L125.36,40.67C124.22,38.883 122.627,37.443 120.58,36.35C118.527,35.257 116.147,34.71 113.44,34.71C110.38,34.71 107.583,35.497 105.05,37.07C102.517,38.643 100.52,40.86 99.06,43.72C97.6,46.58 96.87,49.863 96.87,53.57ZM125.42,53.44C125.42,55.667 124.983,57.577 124.11,59.17C123.237,60.763 122.06,61.987 120.58,62.84C119.093,63.693 117.497,64.12 115.79,64.12C114.09,64.12 112.52,63.703 111.08,62.87C109.64,62.043 108.473,60.833 107.58,59.24C106.68,57.647 106.23,55.757 106.23,53.57C106.23,51.39 106.68,49.48 107.58,47.84C108.473,46.207 109.65,44.953 111.11,44.08C112.577,43.207 114.137,42.77 115.79,42.77C117.497,42.77 119.093,43.193 120.58,44.04C122.06,44.893 123.237,46.117 124.11,47.71C124.983,49.303 125.42,51.213 125.42,53.44ZM157.84,72.17C160.547,72.17 162.927,71.637 164.98,70.57C167.033,69.497 168.65,68.11 169.83,66.41L169.83,71.58L179.06,71.58L179.06,35.04C179.06,31.68 178.383,28.677 177.03,26.03C175.677,23.39 173.647,21.297 170.94,19.75C168.233,18.197 164.96,17.42 161.12,17.42C155.967,17.42 151.74,18.62 148.44,21.02C145.147,23.42 143.28,26.697 142.84,30.85L151.95,30.85C152.43,29.19 153.467,27.867 155.06,26.88C156.653,25.9 158.587,25.41 160.86,25.41C163.52,25.41 165.68,26.207 167.34,27.8C169,29.393 169.83,31.807 169.83,35.04L169.83,40.67C168.65,38.97 167.023,37.55 164.95,36.41C162.877,35.277 160.507,34.71 157.84,34.71C154.787,34.71 151.993,35.497 149.46,37.07C146.927,38.643 144.93,40.86 143.47,43.72C142.003,46.58 141.27,49.863 141.27,53.57C141.27,57.243 142.003,60.497 143.47,63.33C144.93,66.17 146.917,68.353 149.43,69.88C151.937,71.407 154.74,72.17 157.84,72.17ZM169.83,53.44C169.83,55.667 169.393,57.577 168.52,59.17C167.647,60.763 166.467,61.987 164.98,62.84C163.493,63.693 161.9,64.12 160.2,64.12C158.5,64.12 156.927,63.703 155.48,62.87C154.04,62.043 152.873,60.833 151.98,59.24C151.087,57.647 150.64,55.757 150.64,53.57C150.64,51.39 151.087,49.48 151.98,47.84C152.873,46.207 154.053,44.953 155.52,44.08C156.98,43.207 158.54,42.77 160.2,42.77C161.9,42.77 163.493,43.193 164.98,44.04C166.467,44.893 167.647,46.117 168.52,47.71C169.393,49.303 169.83,51.213 169.83,53.44ZM221.77,54.23C221.77,52.917 221.68,51.737 221.5,50.69L194.98,50.69C195.2,48.07 196.117,46.02 197.73,44.54C199.343,43.053 201.33,42.31 203.69,42.31C207.097,42.31 209.52,43.773 210.96,46.7L220.85,46.7C219.803,43.207 217.793,40.333 214.82,38.08C211.853,35.833 208.21,34.71 203.89,34.71C200.397,34.71 197.263,35.487 194.49,37.04C191.717,38.587 189.553,40.78 188,43.62C186.453,46.46 185.68,49.733 185.68,53.44C185.68,57.2 186.443,60.497 187.97,63.33C189.497,66.17 191.637,68.353 194.39,69.88C197.137,71.407 200.303,72.17 203.89,72.17C207.337,72.17 210.423,71.43 213.15,69.95C215.883,68.463 218.003,66.357 219.51,63.63C221.017,60.897 221.77,57.763 221.77,54.23ZM195.04,56.85L212.27,56.85C212.223,59.203 211.37,61.09 209.71,62.51C208.057,63.93 206.027,64.64 203.62,64.64C201.353,64.64 199.443,63.953 197.89,62.58C196.343,61.207 195.393,59.297 195.04,56.85ZM247.24,64.05L239.12,64.05L239.12,46.5C239.12,45.28 239.417,44.397 240.01,43.85C240.597,43.303 241.59,43.03 242.99,43.03L247.24,43.03L247.24,35.3L241.48,35.3C233.753,35.3 229.89,39.057 229.89,46.57L229.89,64.05L225.56,64.05L225.56,71.58L229.89,71.58L229.89,80.56L239.12,80.56L239.12,71.58L247.24,71.58L247.24,64.05ZM253.86,81.02L282.09,81.02L282.09,73.61L263.03,73.61L263.03,61.89L277.63,61.89L277.63,54.62L263.03,54.62L263.03,35.3L253.86,35.3L253.86,81.02ZM293.22,75.91C291.607,75.91 290.263,76.423 289.19,77.45C288.123,78.477 287.59,79.753 287.59,81.28C287.59,82.807 288.123,84.083 289.19,85.11C290.263,86.137 291.607,86.65 293.22,86.65C294.833,86.65 296.177,86.137 297.25,85.11C298.317,84.083 298.85,82.807 298.85,81.28C298.85,79.753 298.317,78.477 297.25,77.45C296.177,76.423 294.833,75.91 293.22,75.91ZM288.57,71.58L297.74,71.58L297.74,35.3L288.57,35.3L288.57,71.58ZM337.17,35.3L326.82,35.3L319.35,46.57L312.74,35.3L302.91,35.3L314.77,53.51L302.78,71.58L313.13,71.58L320.53,60.38L327.21,71.58L337.04,71.58L325.12,53.51L337.17,35.3Z" style="fill:rgb(245,245,245);fill-rule:nonzero;"/>
        </g>
    </g>
</svg>
